<svg id="Layer_1" data-name="Layer 1" xmlns="http://www.w3.org/2000/svg" viewBox="0 0 2314 2314"><defs><style>.cls-1,.cls-3{fill:#fff;}.cls-2{fill:none;}.cls-2,.cls-3{stroke:#fff;stroke-miterlimit:10;stroke-width:10px;}</style></defs><path class="cls-1" d="M1157,80a1085.38,1085.38,0,0,1,217.14,21.88,1070.49,1070.49,0,0,1,385,162,1080.5,1080.5,0,0,1,390.3,473.92,1071.26,1071.26,0,0,1,62.72,202.05,1088.4,1088.4,0,0,1,0,434.28,1070.49,1070.49,0,0,1-162,385,1080.5,1080.5,0,0,1-473.92,390.3,1071.26,1071.26,0,0,1-202,62.72,1088.4,1088.4,0,0,1-434.28,0,1070.49,1070.49,0,0,1-385-162,1080.5,1080.5,0,0,1-390.3-473.92,1071.26,1071.26,0,0,1-62.72-202,1088.4,1088.4,0,0,1,0-434.28,1070.49,1070.49,0,0,1,162-385A1080.5,1080.5,0,0,1,737.81,164.6a1071.26,1071.26,0,0,1,202.05-62.72A1085.38,1085.38,0,0,1,1157,80m0-80C518,0,0,518,0,1157S518,2314,1157,2314s1157-518,1157-1157S1796,0,1157,0Z"/><path class="cls-2" d="M141.38,1530.14C32.17,808.72,1449,4.68,1841.38,284.14c377.2,268.6,164.68,1792.09-596,1958C796.52,2340,205.64,1954.57,141.38,1530.14Z"/><path class="cls-2" d="M2248.25,1107.5c-70.84,726.19-1641.42,1158.66-1953.44,791.58C-5.09,1546.26,574.17,121.25,1352.31,146.74,1811.48,161.78,2289.92,680.26,2248.25,1107.5Z"/><path class="cls-2" d="M936.52,109.67C1665.76,85.4,2299,1586.34,1975.59,1943.48c-310.79,343.26-1799.06-45.61-1875-820.45C55.7,665.8,507.49,124,936.52,109.67Z"/><path class="cls-2" d="M1358.85,2226.65C629.34,2240.7,17.24,731,345.57,378.46,661.14,39.59,2143.82,449.27,2209,1225.1,2247.38,1682.91,1788,2218.38,1358.85,2226.65Z"/><circle class="cls-1" cx="1176.56" cy="1145.39" r="156.61"/><path class="cls-1" d="M1176.56,1008.78a136.62,136.62,0,1,1-96.6,40,135.67,135.67,0,0,1,96.6-40m0-40a176.61,176.61,0,1,0,176.6,176.61,176.61,176.61,0,0,0-176.6-176.61Z"/><path class="cls-1" d="M1462,1000.11c15.71,0,20.69,3.35,21.28,4.65.68,1.48-.35,8.36-13.1,22.21-12.18,13.23-32.19,29.61-57.87,47.37-54.34,37.6-130.44,79.47-214.29,117.92-128.39,58.86-251.74,98.41-306.95,98.41-15.71,0-20.68-3.35-21.27-4.64-.69-1.49.34-8.37,13.09-22.22,12.18-13.22,32.19-29.6,57.87-47.37,54.34-37.59,130.44-79.47,214.29-117.91,128.39-58.87,251.74-98.42,307-98.42h0m0-10c-55.28,0-176.82,37.75-311.12,99.33-174.43,80-304.34,169.85-290.17,200.76,3.25,7.11,13.85,10.47,30.36,10.47,55.28,0,176.82-37.75,311.12-99.32,174.43-80,304.35-169.86,290.18-200.76-3.26-7.11-13.86-10.48-30.37-10.48Z"/><path class="cls-1" d="M1572.13,940.22c26.91,0,32,6.65,33,8.68,2.16,4.71-1.65,16.37-18.82,35-17.31,18.8-44.5,41.07-80.82,66.2-75.48,52.22-181.15,110.37-297.53,163.73-89.74,41.14-178.08,75.85-255.48,100.37-74,23.44-134.89,36.35-171.47,36.35-26.92,0-32.06-6.64-33-8.68-2.16-4.7,1.66-16.37,18.82-35s44.5-41.07,80.83-66.2c75.48-52.22,181.14-110.36,297.52-163.72,89.74-41.15,178.08-75.85,255.48-100.38,74-23.44,134.89-36.35,171.48-36.35h0m0-10c-76.59,0-245,52.31-431.11,137.63-241.71,110.82-421.73,235.37-402.1,278.2,4.52,9.85,19.2,14.51,42.08,14.51,76.6,0,245-52.31,431.12-137.63,241.7-110.82,421.73-235.37,402.09-278.19-4.51-9.85-19.19-14.52-42.08-14.52Z"/><path class="cls-1" d="M1672.4,885.68c24.14,0,40,4.5,43.65,12.36,1.89,4.13,3.34,16.94-24,46.66-21.83,23.7-56,51.74-101.74,83.34-94.73,65.54-227.31,138.51-373.33,205.45-112.58,51.62-223.41,95.16-320.53,125.93-46.66,14.78-88.93,26.22-125.63,34s-67,11.7-90.07,11.7c-24.14,0-40.05-4.51-43.66-12.37-1.89-4.12-3.34-16.93,24-46.65,21.83-23.7,56.06-51.74,101.74-83.35,94.73-65.54,227.32-138.5,373.33-205.45,112.58-51.61,223.41-95.16,320.53-125.93,46.66-14.78,88.93-26.21,125.64-34s67-11.7,90.07-11.7h0m0-10c-96,0-307.12,65.57-540.39,172.52-303,138.91-528.64,295-504,348.71,5.66,12.35,24.07,18.2,52.75,18.2,96,0,307.12-65.57,540.4-172.53,303-138.91,528.63-295,504-348.71-5.66-12.34-24.06-18.2-52.75-18.19Z"/><polygon class="cls-3" points="1587.4 1004.21 1596.5 1022.65 1616.85 1025.61 1602.12 1039.96 1605.6 1060.23 1587.4 1050.66 1569.19 1060.23 1572.67 1039.96 1557.94 1025.61 1578.3 1022.65 1587.4 1004.21"/><polygon class="cls-3" points="642.62 1361.05 651.72 1379.49 672.07 1382.45 657.35 1396.8 660.82 1417.07 642.62 1407.5 624.42 1417.07 627.89 1396.8 613.17 1382.45 633.52 1379.49 642.62 1361.05"/><polygon class="cls-3" points="945.62 1186.05 954.72 1204.49 975.07 1207.45 960.35 1221.8 963.82 1242.07 945.62 1232.5 927.42 1242.07 930.89 1221.8 916.17 1207.45 936.52 1204.49 945.62 1186.05"/></svg>